<svg xmlns="http://www.w3.org/2000/svg" xmlns:xlink="http://www.w3.org/1999/xlink" width="123" zoomAndPan="magnify" viewBox="0 0 92.25 92.249996" height="123" preserveAspectRatio="xMidYMid meet" version="1.0"><defs><clipPath id="9c9b44abb7"><path d="M 13 11 L 74 11 L 74 72 L 13 72 Z M 13 11 " clip-rule="nonzero"/></clipPath><clipPath id="c871ae0ccf"><path d="M 13.175781 41.820312 L 43.6875 11.308594 L 74.199219 41.820312 L 43.6875 72.332031 Z M 13.175781 41.820312 " clip-rule="nonzero"/></clipPath><clipPath id="78895aabec"><path d="M 13.175781 41.820312 L 43.6875 11.308594 L 74.199219 41.820312 L 43.6875 72.332031 Z M 13.175781 41.820312 " clip-rule="nonzero"/></clipPath><clipPath id="003f4c1d66"><path d="M 11.179688 11.179688 L 80.367188 11.179688 L 80.367188 80.367188 L 11.179688 80.367188 Z M 11.179688 11.179688 " clip-rule="nonzero"/></clipPath></defs><g clip-path="url(#9c9b44abb7)"><g clip-path="url(#c871ae0ccf)"><g clip-path="url(#78895aabec)"><path fill="#ffffff" d="M 42.722656 12.273438 L 14.269531 40.726562 C 13.667969 41.332031 13.667969 42.3125 14.269531 42.914062 L 42.722656 71.367188 C 43.332031 71.976562 44.308594 71.972656 44.914062 71.367188 L 73.367188 42.914062 C 73.96875 42.3125 73.96875 41.332031 73.367188 40.726562 L 44.914062 12.273438 C 44.308594 11.667969 43.328125 11.667969 42.722656 12.273438 Z M 42.722656 12.273438 " fill-opacity="1" fill-rule="nonzero"/></g></g></g><g clip-path="url(#003f4c1d66)"><path fill="#f03c2e" d="M 79.058594 42.691406 L 48.851562 12.484375 C 47.113281 10.746094 44.289062 10.746094 42.550781 12.484375 L 36.277344 18.757812 L 44.234375 26.714844 C 46.082031 26.089844 48.203125 26.511719 49.675781 27.984375 C 51.160156 29.46875 51.574219 31.605469 50.933594 33.460938 L 58.605469 41.128906 C 60.460938 40.492188 62.597656 40.902344 64.082031 42.386719 C 66.152344 44.457031 66.152344 47.8125 64.082031 49.886719 C 62.011719 51.957031 58.65625 51.957031 56.582031 49.886719 C 55.023438 48.328125 54.640625 46.039062 55.429688 44.121094 L 48.277344 36.96875 L 48.277344 55.789062 C 48.78125 56.039062 49.257812 56.371094 49.675781 56.789062 C 51.75 58.859375 51.75 62.214844 49.675781 64.289062 C 47.605469 66.359375 44.25 66.359375 42.179688 64.289062 C 40.109375 62.214844 40.109375 58.859375 42.179688 56.789062 C 42.691406 56.28125 43.285156 55.894531 43.917969 55.632812 L 43.917969 36.640625 C 43.285156 36.378906 42.695312 35.996094 42.179688 35.480469 C 40.613281 33.914062 40.234375 31.613281 41.039062 29.6875 L 33.195312 21.839844 L 12.480469 42.550781 C 10.742188 44.292969 10.742188 47.113281 12.480469 48.855469 L 42.691406 79.0625 C 44.429688 80.800781 47.25 80.800781 48.992188 79.0625 L 79.058594 48.996094 C 80.796875 47.253906 80.796875 44.429688 79.058594 42.691406 " fill-opacity="1" fill-rule="nonzero"/></g></svg>