<svg xmlns="http://www.w3.org/2000/svg" xmlns:xlink="http://www.w3.org/1999/xlink" width="128" zoomAndPan="magnify" viewBox="0 0 96 95.999999" height="128" preserveAspectRatio="xMidYMid meet" version="1.0"><path fill="#05bdba" d="M 82.6875 46.296875 L 95.796875 46.296875 L 96 46.503906 L 96 48.582031 L 95.796875 48.789062 L 81.867188 48.789062 L 81.664062 48.582031 L 82.480469 46.503906 Z M 0.203125 46.296875 L 14.132812 46.296875 L 14.335938 46.503906 L 14.335938 48.582031 L 14.132812 48.789062 L 0.203125 48.789062 L 0 48.582031 L 0 46.503906 Z M 13.117188 35.148438 L 12.824219 35.148438 L 11.375 36.617188 L 11.375 36.910156 L 14.757812 40.339844 L 16.292969 40.339844 L 16.496094 40.132812 L 16.496094 38.578125 Z M 13.117188 59.9375 L 12.828125 59.9375 L 11.378906 58.46875 L 11.378906 58.175781 L 14.761719 54.746094 L 16.292969 54.746094 L 16.5 54.953125 L 16.5 56.507812 Z M 22.019531 37.929688 L 22.019531 27.957031 L 22.226562 27.75 L 24.273438 27.75 L 24.476562 27.957031 L 24.476562 37.929688 L 24.273438 38.136719 L 22.226562 38.136719 Z M 22.019531 67.125 L 22.019531 57.15625 L 22.226562 56.945312 L 24.273438 56.945312 L 24.476562 57.15625 L 24.476562 67.125 L 24.273438 67.335938 L 22.226562 67.335938 Z M 22.019531 67.125 " fill-opacity="1" fill-rule="nonzero"/><path fill="#ffffff" d="M 25.398438 52.792969 L 25.191406 52.585938 L 25.195312 46.5625 C 25.195312 45.523438 24.792969 44.71875 23.554688 44.691406 C 22.839844 44.679688 22.128906 44.6875 21.414062 44.722656 L 21.296875 44.84375 L 21.300781 52.585938 L 21.09375 52.792969 L 18.636719 52.792969 L 18.429688 52.585938 L 18.429688 42.496094 L 18.636719 42.289062 L 24.167969 42.238281 C 26.941406 42.238281 28.0625 44.171875 28.0625 46.351562 L 28.0625 52.585938 L 27.855469 52.792969 Z M 75.828125 53.003906 C 75.007812 55.082031 74.1875 56.328125 71.320312 56.328125 L 70.292969 56.328125 L 70.089844 56.121094 L 70.089844 54.042969 L 70.292969 53.832031 L 71.320312 53.832031 C 72.34375 53.832031 72.550781 53.625 72.753906 53 L 72.753906 52.792969 L 69.476562 44.6875 L 69.476562 42.609375 L 69.679688 42.398438 L 71.523438 42.398438 L 71.730469 42.609375 L 74.1875 49.675781 L 74.394531 49.675781 L 76.855469 42.609375 L 77.058594 42.398438 L 78.902344 42.398438 L 79.109375 42.609375 L 79.109375 44.6875 L 75.828125 53 Z M 68.246094 38.449219 L 68.246094 40.53125 L 68.039062 40.738281 L 66.195312 40.738281 C 65.785156 40.738281 65.582031 40.945312 65.582031 41.363281 L 65.582031 42.195312 L 65.785156 42.402344 L 67.835938 42.402344 L 68.042969 42.609375 L 68.042969 44.6875 L 67.835938 44.894531 L 65.785156 44.894531 L 65.582031 45.101562 L 65.582031 52.585938 L 65.375 52.796875 L 62.917969 52.796875 L 62.710938 52.585938 L 62.710938 45.105469 L 62.507812 44.898438 L 61.074219 44.898438 L 60.867188 44.6875 L 60.867188 42.609375 L 61.074219 42.402344 L 62.507812 42.402344 L 62.710938 42.195312 L 62.710938 41.363281 C 62.710938 39.074219 64.351562 38.242188 66.195312 38.242188 L 68.039062 38.242188 L 68.246094 38.453125 Z M 58.613281 40.738281 L 56.15625 40.738281 L 55.949219 40.53125 L 55.949219 38.449219 L 56.15625 38.242188 L 58.613281 38.242188 L 58.820312 38.449219 L 58.820312 40.53125 Z M 58.613281 52.792969 L 56.15625 52.792969 L 55.949219 52.585938 L 55.949219 42.609375 L 56.15625 42.402344 L 58.613281 42.402344 L 58.820312 42.609375 L 58.820312 52.585938 Z M 53.082031 52.792969 L 50.621094 52.792969 L 50.417969 52.585938 L 50.417969 38.449219 L 50.621094 38.242188 L 53.082031 38.242188 L 53.285156 38.449219 L 53.285156 52.585938 Z M 45.5 49.675781 C 45.5 50.089844 45.703125 50.300781 46.113281 50.300781 L 47.957031 50.300781 L 48.164062 50.507812 L 48.164062 52.585938 L 47.957031 52.792969 L 46.113281 52.792969 C 44.269531 52.792969 42.628906 51.960938 42.628906 49.675781 L 42.628906 45.101562 L 42.425781 44.894531 L 40.992188 44.894531 L 40.785156 44.6875 L 40.785156 42.609375 L 40.992188 42.398438 L 42.425781 42.398438 L 42.628906 42.191406 L 42.628906 40.320312 L 42.835938 40.113281 L 45.292969 40.113281 L 45.5 40.320312 L 45.5 42.191406 L 45.703125 42.398438 L 47.957031 42.398438 L 48.164062 42.605469 L 48.164062 44.6875 L 47.957031 44.894531 L 45.703125 44.894531 L 45.5 45.101562 Z M 39.761719 48.429688 L 39.554688 48.636719 L 33.203125 48.636719 L 32.996094 48.84375 C 32.996094 49.261719 33.40625 50.507812 35.046875 50.507812 C 35.660156 50.507812 36.277344 50.300781 36.480469 49.882812 L 36.6875 49.675781 L 39.144531 49.675781 L 39.351562 49.882812 C 39.144531 51.132812 38.121094 53.003906 35.046875 53.003906 C 31.5625 53.003906 29.921875 50.507812 29.921875 47.597656 C 29.921875 44.6875 31.5625 42.195312 34.84375 42.195312 C 38.121094 42.195312 39.761719 44.6875 39.761719 47.597656 Z M 36.6875 46.351562 C 36.6875 46.140625 36.480469 44.6875 34.839844 44.6875 C 33.203125 44.6875 32.996094 46.140625 32.996094 46.351562 L 33.203125 46.558594 L 36.480469 46.558594 Z M 36.6875 46.351562 " fill-opacity="1" fill-rule="nonzero"/></svg>