<svg xmlns="http://www.w3.org/2000/svg" xmlns:xlink="http://www.w3.org/1999/xlink" width="256" zoomAndPan="magnify" viewBox="0 0 192 191.999996" height="256" preserveAspectRatio="xMidYMid meet" version="1.0"><defs><g/><clipPath id="e5e8df6ada"><path d="M 2.558594 55.570312 L 192 55.570312 L 192 133.871094 L 2.558594 133.871094 Z M 2.558594 55.570312 " clip-rule="nonzero"/></clipPath><clipPath id="f9da73b533"><path d="M 11.558594 55.570312 L 185.558594 55.570312 C 190.527344 55.570312 194.558594 59.601562 194.558594 64.570312 L 194.558594 124.871094 C 194.558594 129.839844 190.527344 133.871094 185.558594 133.871094 L 11.558594 133.871094 C 6.585938 133.871094 2.558594 129.839844 2.558594 124.871094 L 2.558594 64.570312 C 2.558594 59.601562 6.585938 55.570312 11.558594 55.570312 Z M 11.558594 55.570312 " clip-rule="nonzero"/></clipPath><clipPath id="d0e8792a01"><path d="M 0.558594 0.570312 L 190 0.570312 L 190 78.871094 L 0.558594 78.871094 Z M 0.558594 0.570312 " clip-rule="nonzero"/></clipPath><clipPath id="fb3f32c0cb"><path d="M 9.558594 0.570312 L 183.558594 0.570312 C 188.527344 0.570312 192.558594 4.601562 192.558594 9.570312 L 192.558594 69.871094 C 192.558594 74.839844 188.527344 78.871094 183.558594 78.871094 L 9.558594 78.871094 C 4.585938 78.871094 0.558594 74.839844 0.558594 69.871094 L 0.558594 9.570312 C 0.558594 4.601562 4.585938 0.570312 9.558594 0.570312 Z M 9.558594 0.570312 " clip-rule="nonzero"/></clipPath><clipPath id="801cad4254"><rect x="0" width="190" y="0" height="79"/></clipPath><clipPath id="e6ac69e714"><path d="M 6.066406 61.210938 L 75.816406 61.210938 L 75.816406 130.960938 L 6.066406 130.960938 Z M 6.066406 61.210938 " clip-rule="nonzero"/></clipPath><clipPath id="b9799d2c03"><rect x="0" width="108" y="0" height="44"/></clipPath></defs><g clip-path="url(#e5e8df6ada)"><g clip-path="url(#f9da73b533)"><g transform="matrix(1, 0, 0, 1, 2, 55)"><g clip-path="url(#801cad4254)"><g clip-path="url(#d0e8792a01)"><g clip-path="url(#fb3f32c0cb)"><path fill="#ffffff" d="M 0.558594 0.570312 L 192.632812 0.570312 L 192.632812 78.871094 L 0.558594 78.871094 Z M 0.558594 0.570312 " fill-opacity="1" fill-rule="nonzero"/></g></g></g></g></g></g><g clip-path="url(#e6ac69e714)"><path fill="#ff6c37" d="M 75.53125 100.511719 C 77.972656 81.40625 64.476562 63.9375 45.402344 61.496094 C 26.332031 59.054688 8.792969 72.550781 6.351562 91.621094 C 3.910156 110.695312 17.40625 128.199219 36.476562 130.675781 C 55.585938 133.117188 73.054688 119.621094 75.53125 100.511719 Z M 75.53125 100.511719 " fill-opacity="1" fill-rule="nonzero"/></g><path fill="#ffffff" d="M 53.527344 83.601562 L 38.8125 98.316406 L 34.664062 94.167969 C 49.136719 79.695312 50.566406 80.953125 53.527344 83.601562 Z M 53.527344 83.601562 " fill-opacity="1" fill-rule="nonzero"/><path fill="#ff6c37" d="M 38.8125 98.664062 C 38.710938 98.664062 38.640625 98.628906 38.570312 98.5625 L 34.386719 94.410156 C 34.246094 94.273438 34.246094 94.0625 34.386719 93.921875 C 49.101562 79.207031 50.632812 80.601562 53.738281 83.394531 C 53.808594 83.460938 53.84375 83.53125 53.84375 83.636719 C 53.84375 83.742188 53.808594 83.8125 53.738281 83.882812 L 39.023438 98.5625 C 38.988281 98.628906 38.882812 98.664062 38.8125 98.664062 Z M 35.152344 94.167969 L 38.8125 97.828125 L 53.003906 83.636719 C 50.425781 81.335938 48.679688 80.636719 35.152344 94.167969 Z M 35.152344 94.167969 " fill-opacity="1" fill-rule="nonzero"/><path fill="#ffffff" d="M 43.03125 102.535156 L 39.023438 98.527344 L 53.738281 83.8125 C 57.675781 87.785156 51.785156 94.238281 43.03125 102.535156 Z M 43.03125 102.535156 " fill-opacity="1" fill-rule="nonzero"/><path fill="#ff6c37" d="M 43.03125 102.882812 C 42.929688 102.882812 42.859375 102.851562 42.789062 102.78125 L 38.777344 98.769531 C 38.710938 98.699219 38.710938 98.628906 38.710938 98.527344 C 38.710938 98.421875 38.742188 98.351562 38.8125 98.28125 L 53.527344 83.566406 C 53.667969 83.429688 53.878906 83.429688 54.015625 83.566406 C 54.921875 84.402344 55.410156 85.589844 55.375 86.808594 C 55.304688 90.679688 50.914062 95.597656 43.3125 102.78125 C 43.207031 102.851562 43.101562 102.882812 43.03125 102.882812 Z M 39.511719 98.527344 C 41.742188 100.792969 42.683594 101.699219 43.03125 102.046875 C 48.890625 96.46875 54.574219 90.75 54.609375 86.808594 C 54.644531 85.902344 54.296875 84.996094 53.703125 84.300781 Z M 39.511719 98.527344 " fill-opacity="1" fill-rule="nonzero"/><path fill="#ffffff" d="M 34.734375 94.273438 L 37.699219 97.234375 C 37.769531 97.304688 37.769531 97.375 37.699219 97.445312 C 37.664062 97.480469 37.664062 97.480469 37.628906 97.480469 L 31.492188 98.804688 C 31.175781 98.839844 30.898438 98.628906 30.828125 98.316406 C 30.792969 98.140625 30.863281 97.96875 30.96875 97.863281 L 34.523438 94.308594 C 34.59375 94.238281 34.699219 94.203125 34.734375 94.273438 Z M 34.734375 94.273438 " fill-opacity="1" fill-rule="nonzero"/><path fill="#ff6c37" d="M 31.386719 99.152344 C 30.863281 99.152344 30.480469 98.734375 30.480469 98.210938 C 30.480469 97.96875 30.585938 97.722656 30.757812 97.550781 L 34.316406 93.992188 C 34.523438 93.820312 34.804688 93.820312 35.011719 93.992188 L 37.976562 96.957031 C 38.1875 97.132812 38.1875 97.445312 37.976562 97.65625 C 37.90625 97.722656 37.835938 97.757812 37.734375 97.792969 L 31.597656 99.117188 C 31.527344 99.117188 31.457031 99.152344 31.386719 99.152344 Z M 34.628906 94.65625 L 31.210938 98.074219 C 31.144531 98.140625 31.109375 98.246094 31.175781 98.351562 C 31.210938 98.457031 31.316406 98.492188 31.421875 98.457031 L 37.175781 97.199219 Z M 34.628906 94.65625 " fill-opacity="1" fill-rule="nonzero"/><path fill="#ffffff" d="M 61.304688 75.441406 C 59.074219 73.28125 55.480469 73.351562 53.320312 75.617188 C 51.15625 77.882812 51.226562 81.441406 53.492188 83.601562 C 55.339844 85.378906 58.132812 85.695312 60.328125 84.371094 L 56.351562 80.394531 Z M 61.304688 75.441406 " fill-opacity="1" fill-rule="nonzero"/><path fill="#ff6c37" d="M 57.398438 85.519531 C 54.085938 85.519531 51.402344 82.835938 51.402344 79.523438 C 51.402344 76.210938 54.085938 73.523438 57.398438 73.523438 C 58.933594 73.523438 60.433594 74.117188 61.546875 75.199219 C 61.617188 75.269531 61.652344 75.339844 61.652344 75.441406 C 61.652344 75.546875 61.617188 75.617188 61.546875 75.6875 L 56.839844 80.394531 L 60.535156 84.089844 C 60.675781 84.230469 60.675781 84.4375 60.535156 84.578125 C 60.503906 84.613281 60.503906 84.613281 60.46875 84.648438 C 59.5625 85.207031 58.480469 85.519531 57.398438 85.519531 Z M 57.398438 74.257812 C 54.46875 74.257812 52.097656 76.628906 52.132812 79.558594 C 52.132812 82.488281 54.503906 84.859375 57.433594 84.824219 C 58.234375 84.824219 59.039062 84.648438 59.769531 84.265625 L 56.109375 80.636719 C 56.039062 80.570312 56.003906 80.5 56.003906 80.394531 C 56.003906 80.289062 56.039062 80.21875 56.109375 80.148438 L 60.78125 75.476562 C 59.839844 74.675781 58.652344 74.257812 57.398438 74.257812 Z M 57.398438 74.257812 " fill-opacity="1" fill-rule="nonzero"/><path fill="#ffffff" d="M 61.410156 75.546875 L 61.339844 75.476562 L 56.351562 80.394531 L 60.292969 84.335938 C 60.675781 84.089844 61.058594 83.8125 61.375 83.496094 C 63.605469 81.300781 63.605469 77.746094 61.410156 75.546875 Z M 61.410156 75.546875 " fill-opacity="1" fill-rule="nonzero"/><path fill="#ff6c37" d="M 60.328125 84.71875 C 60.222656 84.71875 60.152344 84.683594 60.082031 84.613281 L 56.109375 80.636719 C 56.039062 80.570312 56.003906 80.5 56.003906 80.394531 C 56.003906 80.289062 56.039062 80.21875 56.109375 80.148438 L 61.058594 75.199219 C 61.199219 75.058594 61.410156 75.058594 61.546875 75.199219 L 61.652344 75.269531 C 63.988281 77.605469 63.988281 81.371094 61.6875 83.742188 C 61.339844 84.089844 60.957031 84.402344 60.535156 84.648438 C 60.433594 84.683594 60.363281 84.71875 60.328125 84.71875 Z M 56.839844 80.394531 L 60.363281 83.917969 C 60.640625 83.742188 60.921875 83.496094 61.128906 83.289062 C 63.117188 81.300781 63.222656 78.058594 61.304688 75.964844 Z M 56.839844 80.394531 " fill-opacity="1" fill-rule="nonzero"/><path fill="#ffffff" d="M 54.121094 84.230469 C 53.285156 83.394531 51.925781 83.394531 51.085938 84.230469 L 37.941406 97.375 L 40.140625 99.570312 L 54.050781 87.367188 C 54.957031 86.601562 55.027344 85.242188 54.261719 84.335938 C 54.191406 84.300781 54.15625 84.265625 54.121094 84.230469 Z M 54.121094 84.230469 " fill-opacity="1" fill-rule="nonzero"/><path fill="#ff6c37" d="M 40.105469 99.921875 C 40 99.921875 39.929688 99.886719 39.859375 99.816406 L 37.664062 97.621094 C 37.523438 97.480469 37.523438 97.269531 37.664062 97.132812 L 50.808594 83.984375 C 51.785156 83.007812 53.355469 83.007812 54.332031 83.984375 C 55.304688 84.960938 55.304688 86.53125 54.332031 87.507812 C 54.296875 87.542969 54.261719 87.578125 54.226562 87.613281 L 40.3125 99.816406 C 40.277344 99.886719 40.207031 99.921875 40.105469 99.921875 Z M 38.429688 97.375 L 40.140625 99.082031 L 53.808594 87.089844 C 54.574219 86.460938 54.644531 85.3125 54.015625 84.542969 C 53.390625 83.777344 52.238281 83.707031 51.472656 84.335938 C 51.4375 84.371094 51.402344 84.402344 51.332031 84.4375 Z M 38.429688 97.375 " fill-opacity="1" fill-rule="nonzero"/><path fill="#ffffff" d="M 27.863281 112.335938 C 27.726562 112.402344 27.65625 112.542969 27.691406 112.683594 L 28.285156 115.191406 C 28.421875 115.542969 28.214844 115.960938 27.828125 116.066406 C 27.550781 116.167969 27.238281 116.066406 27.0625 115.855469 L 23.226562 112.054688 L 35.746094 99.539062 L 40.070312 99.605469 L 42.996094 102.535156 C 42.300781 103.128906 38.082031 107.207031 27.863281 112.335938 Z M 27.863281 112.335938 " fill-opacity="1" fill-rule="nonzero"/><path fill="#ff6c37" d="M 27.585938 116.414062 C 27.308594 116.414062 27.027344 116.308594 26.855469 116.101562 L 23.054688 112.300781 C 22.984375 112.230469 22.949219 112.160156 22.949219 112.054688 C 22.949219 111.949219 22.984375 111.878906 23.054688 111.8125 L 35.570312 99.292969 C 35.640625 99.222656 35.746094 99.1875 35.816406 99.1875 L 40.140625 99.257812 C 40.242188 99.257812 40.3125 99.292969 40.382812 99.363281 L 43.3125 102.292969 C 43.382812 102.363281 43.417969 102.464844 43.417969 102.570312 C 43.417969 102.675781 43.382812 102.746094 43.277344 102.816406 L 43.03125 103.023438 C 39.335938 106.265625 34.316406 109.507812 28.074219 112.613281 L 28.667969 115.089844 C 28.773438 115.542969 28.5625 116.03125 28.144531 116.273438 C 27.933594 116.378906 27.761719 116.414062 27.585938 116.414062 Z M 23.75 112.054688 L 27.34375 115.613281 C 27.445312 115.785156 27.65625 115.855469 27.828125 115.75 C 28.003906 115.648438 28.074219 115.4375 27.96875 115.261719 L 27.375 112.753906 C 27.308594 112.4375 27.445312 112.160156 27.726562 112.019531 C 33.898438 108.917969 38.882812 105.710938 42.542969 102.535156 L 39.964844 99.957031 L 35.953125 99.886719 Z M 23.75 112.054688 " fill-opacity="1" fill-rule="nonzero"/><path fill="#ffffff" d="M 20.261719 115.054688 L 23.261719 112.054688 L 27.726562 116.519531 L 20.613281 116.03125 C 20.296875 115.996094 20.089844 115.714844 20.125 115.402344 C 20.125 115.261719 20.160156 115.125 20.261719 115.054688 Z M 20.261719 115.054688 " fill-opacity="1" fill-rule="nonzero"/><path fill="#ff6c37" d="M 27.726562 116.832031 L 20.578125 116.34375 C 20.054688 116.308594 19.707031 115.855469 19.742188 115.332031 C 19.777344 115.125 19.84375 114.914062 20.019531 114.773438 L 23.019531 111.777344 C 23.15625 111.636719 23.367188 111.636719 23.507812 111.777344 L 27.96875 116.238281 C 28.074219 116.34375 28.109375 116.484375 28.039062 116.621094 C 27.96875 116.761719 27.863281 116.832031 27.726562 116.832031 Z M 23.261719 112.542969 L 20.507812 115.296875 C 20.402344 115.367188 20.402344 115.542969 20.507812 115.613281 C 20.542969 115.648438 20.578125 115.679688 20.648438 115.679688 L 26.820312 116.101562 Z M 23.261719 112.542969 " fill-opacity="1" fill-rule="nonzero"/><path fill="#ff6c37" d="M 34.523438 101.140625 C 34.316406 101.140625 34.175781 100.96875 34.175781 100.792969 C 34.175781 100.6875 34.210938 100.617188 34.28125 100.546875 L 37.664062 97.167969 C 37.800781 97.027344 38.011719 97.027344 38.152344 97.167969 L 40.347656 99.363281 C 40.453125 99.46875 40.488281 99.570312 40.453125 99.710938 C 40.417969 99.816406 40.3125 99.921875 40.171875 99.957031 L 34.59375 101.140625 C 34.558594 101.140625 34.523438 101.140625 34.523438 101.140625 Z M 37.90625 97.898438 L 35.605469 100.199219 L 39.371094 99.398438 Z M 37.90625 97.898438 " fill-opacity="1" fill-rule="nonzero"/><path fill="#ffffff" d="M 40.070312 99.605469 L 36.234375 100.445312 C 35.953125 100.511719 35.675781 100.339844 35.605469 100.058594 C 35.570312 99.886719 35.605469 99.710938 35.746094 99.570312 L 37.871094 97.445312 Z M 40.070312 99.605469 " fill-opacity="1" fill-rule="nonzero"/><path fill="#ff6c37" d="M 36.164062 100.792969 C 35.675781 100.792969 35.292969 100.410156 35.292969 99.921875 C 35.292969 99.675781 35.398438 99.46875 35.535156 99.292969 L 37.664062 97.167969 C 37.800781 97.027344 38.011719 97.027344 38.152344 97.167969 L 40.347656 99.363281 C 40.453125 99.46875 40.488281 99.570312 40.453125 99.710938 C 40.417969 99.816406 40.3125 99.921875 40.171875 99.957031 L 36.339844 100.792969 C 36.269531 100.792969 36.199219 100.792969 36.164062 100.792969 Z M 37.90625 97.898438 L 36.023438 99.78125 C 35.953125 99.851562 35.953125 99.921875 35.988281 99.992188 C 36.023438 100.058594 36.09375 100.09375 36.199219 100.09375 L 39.40625 99.398438 Z M 37.90625 97.898438 " fill-opacity="1" fill-rule="nonzero"/><path fill="#ff6c37" d="M 61.445312 78.894531 C 61.375 78.6875 61.128906 78.582031 60.921875 78.652344 C 60.710938 78.71875 60.605469 78.964844 60.675781 79.175781 C 60.675781 79.207031 60.710938 79.242188 60.710938 79.277344 C 60.921875 79.695312 60.851562 80.21875 60.570312 80.601562 C 60.433594 80.777344 60.46875 81.023438 60.605469 81.160156 C 60.78125 81.300781 61.023438 81.265625 61.164062 81.089844 C 61.6875 80.429688 61.792969 79.59375 61.445312 78.894531 Z M 61.445312 78.894531 " fill-opacity="1" fill-rule="nonzero"/><g transform="matrix(1, 0, 0, 1, 78, 74)"><g clip-path="url(#b9799d2c03)"><g fill="#ff6c37" fill-opacity="1"><g transform="translate(0.189856, 27.508535)"><g><path d="M 4.375 -8.265625 L 4.5 -8.125 C 4.644531 -8.09375 4.890625 -8.070312 5.234375 -8.0625 C 5.585938 -8.0625 5.957031 -8.0625 6.34375 -8.0625 C 6.726562 -8.0625 7.09375 -8.066406 7.4375 -8.078125 C 7.78125 -8.097656 8.03125 -8.113281 8.1875 -8.125 L 8.203125 -8.125 C 8.609375 -8.144531 8.984375 -8.25 9.328125 -8.4375 C 9.679688 -8.632812 9.984375 -8.878906 10.234375 -9.171875 C 10.492188 -9.460938 10.695312 -9.789062 10.84375 -10.15625 C 10.988281 -10.53125 11.0625 -10.925781 11.0625 -11.34375 C 11.0625 -12.09375 10.914062 -12.6875 10.625 -13.125 C 10.34375 -13.5625 9.960938 -13.890625 9.484375 -14.109375 C 9.003906 -14.328125 8.460938 -14.46875 7.859375 -14.53125 C 7.253906 -14.59375 6.640625 -14.625 6.015625 -14.625 L 4.53125 -14.625 L 4.375 -14.453125 Z M 4.859375 -17.296875 C 5.472656 -17.296875 6.082031 -17.296875 6.6875 -17.296875 C 7.289062 -17.296875 7.910156 -17.285156 8.546875 -17.265625 C 9.304688 -17.148438 10.007812 -16.921875 10.65625 -16.578125 C 11.300781 -16.234375 11.863281 -15.796875 12.34375 -15.265625 C 12.820312 -14.742188 13.191406 -14.140625 13.453125 -13.453125 C 13.722656 -12.773438 13.859375 -12.046875 13.859375 -11.265625 C 13.859375 -10.566406 13.738281 -9.90625 13.5 -9.28125 C 13.257812 -8.664062 12.929688 -8.101562 12.515625 -7.59375 C 12.097656 -7.09375 11.609375 -6.65625 11.046875 -6.28125 C 10.484375 -5.914062 9.875 -5.640625 9.21875 -5.453125 C 8.988281 -5.378906 8.691406 -5.332031 8.328125 -5.3125 C 7.972656 -5.289062 7.609375 -5.28125 7.234375 -5.28125 C 7.066406 -5.28125 6.90625 -5.28125 6.75 -5.28125 C 6.59375 -5.289062 6.441406 -5.296875 6.296875 -5.296875 C 6.128906 -5.296875 5.972656 -5.296875 5.828125 -5.296875 C 5.679688 -5.304688 5.535156 -5.3125 5.390625 -5.3125 C 5.179688 -5.3125 4.992188 -5.304688 4.828125 -5.296875 C 4.671875 -5.285156 4.550781 -5.269531 4.46875 -5.25 L 4.375 -5.109375 C 4.375 -4.878906 4.375 -4.648438 4.375 -4.421875 C 4.375 -4.191406 4.375 -3.960938 4.375 -3.734375 C 4.375 -3.128906 4.375 -2.53125 4.375 -1.9375 C 4.382812 -1.34375 4.390625 -0.75 4.390625 -0.15625 C 4.390625 0.445312 4.382812 1.019531 4.375 1.5625 C 4.375 2.101562 4.375 2.671875 4.375 3.265625 L 1.5 3.265625 L 1.5 -6.828125 C 1.5 -7.367188 1.5 -7.90625 1.5 -8.4375 C 1.507812 -8.976562 1.515625 -9.515625 1.515625 -10.046875 L 1.515625 -17.296875 Z M 4.859375 -17.296875 "/></g></g><g transform="translate(15.252256, 27.508535)"><g><path d="M 10.609375 -5.109375 C 10.492188 -5.460938 10.328125 -5.785156 10.109375 -6.078125 C 9.890625 -6.378906 9.632812 -6.632812 9.34375 -6.84375 C 9.050781 -7.0625 8.726562 -7.226562 8.375 -7.34375 C 8.019531 -7.457031 7.660156 -7.515625 7.296875 -7.515625 C 6.703125 -7.515625 6.191406 -7.394531 5.765625 -7.15625 C 5.335938 -6.925781 4.976562 -6.617188 4.6875 -6.234375 C 4.40625 -5.847656 4.195312 -5.410156 4.0625 -4.921875 C 3.925781 -4.441406 3.859375 -3.945312 3.859375 -3.4375 C 3.859375 -3.070312 3.890625 -2.722656 3.953125 -2.390625 C 4.003906 -1.953125 4.117188 -1.546875 4.296875 -1.171875 C 4.484375 -0.796875 4.71875 -0.472656 5 -0.203125 C 5.289062 0.0664062 5.628906 0.273438 6.015625 0.421875 C 6.398438 0.578125 6.828125 0.65625 7.296875 0.65625 C 7.898438 0.65625 8.421875 0.539062 8.859375 0.3125 C 9.296875 0.0820312 9.660156 -0.222656 9.953125 -0.609375 C 10.242188 -0.992188 10.457031 -1.4375 10.59375 -1.9375 C 10.738281 -2.445312 10.8125 -2.96875 10.8125 -3.5 C 10.8125 -3.789062 10.789062 -4.066406 10.75 -4.328125 C 10.71875 -4.585938 10.671875 -4.847656 10.609375 -5.109375 Z M 1.203125 -3.421875 C 1.203125 -3.898438 1.234375 -4.375 1.296875 -4.84375 C 1.367188 -5.320312 1.488281 -5.785156 1.65625 -6.234375 C 1.875 -6.816406 2.171875 -7.347656 2.546875 -7.828125 C 2.929688 -8.304688 3.367188 -8.71875 3.859375 -9.0625 C 4.347656 -9.40625 4.882812 -9.671875 5.46875 -9.859375 C 6.0625 -10.054688 6.671875 -10.15625 7.296875 -10.15625 C 8.066406 -10.15625 8.804688 -10.007812 9.515625 -9.71875 C 10.234375 -9.4375 10.867188 -9.046875 11.421875 -8.546875 C 11.984375 -8.046875 12.441406 -7.453125 12.796875 -6.765625 C 13.148438 -6.085938 13.351562 -5.359375 13.40625 -4.578125 C 13.414062 -4.492188 13.421875 -4.414062 13.421875 -4.34375 C 13.421875 -4.257812 13.421875 -4.175781 13.421875 -4.09375 L 13.421875 -3.609375 C 13.421875 -3.171875 13.398438 -2.734375 13.359375 -2.296875 C 13.316406 -1.859375 13.238281 -1.40625 13.125 -0.9375 C 12.945312 -0.320312 12.664062 0.238281 12.28125 0.75 C 11.894531 1.269531 11.4375 1.71875 10.90625 2.09375 C 10.375 2.476562 9.796875 2.773438 9.171875 2.984375 C 8.546875 3.191406 7.921875 3.296875 7.296875 3.296875 C 6.648438 3.296875 6.03125 3.195312 5.4375 3 C 4.84375 2.8125 4.296875 2.539062 3.796875 2.1875 C 3.296875 1.832031 2.851562 1.398438 2.46875 0.890625 C 2.082031 0.390625 1.785156 -0.171875 1.578125 -0.796875 C 1.441406 -1.222656 1.34375 -1.648438 1.28125 -2.078125 C 1.226562 -2.503906 1.203125 -2.953125 1.203125 -3.421875 Z M 1.203125 -3.421875 "/></g></g><g transform="translate(29.877846, 27.508535)"><g><path d="M 0.921875 -1.0625 C 1.109375 -1.0625 1.332031 -1.0625 1.59375 -1.0625 C 1.851562 -1.070312 2.117188 -1.078125 2.390625 -1.078125 C 2.660156 -1.085938 2.914062 -1.09375 3.15625 -1.09375 C 3.414062 -1.09375 3.617188 -1.09375 3.765625 -1.09375 C 3.859375 -0.707031 4.039062 -0.375 4.3125 -0.09375 C 4.59375 0.1875 4.914062 0.40625 5.28125 0.5625 C 5.65625 0.71875 6.050781 0.804688 6.46875 0.828125 C 6.894531 0.859375 7.289062 0.816406 7.65625 0.703125 C 8.03125 0.585938 8.359375 0.398438 8.640625 0.140625 C 8.929688 -0.117188 9.128906 -0.457031 9.234375 -0.875 C 9.234375 -1.070312 9.175781 -1.242188 9.0625 -1.390625 C 8.945312 -1.546875 8.800781 -1.6875 8.625 -1.8125 C 8.09375 -2.039062 7.539062 -2.210938 6.96875 -2.328125 C 6.40625 -2.441406 5.835938 -2.550781 5.265625 -2.65625 C 4.703125 -2.757812 4.144531 -2.882812 3.59375 -3.03125 C 3.039062 -3.1875 2.507812 -3.414062 2 -3.71875 C 1.6875 -3.925781 1.445312 -4.195312 1.28125 -4.53125 C 1.125 -4.863281 1.023438 -5.210938 0.984375 -5.578125 C 0.941406 -5.953125 0.96875 -6.328125 1.0625 -6.703125 C 1.15625 -7.085938 1.3125 -7.425781 1.53125 -7.71875 C 1.78125 -8.113281 2.078125 -8.460938 2.421875 -8.765625 C 2.773438 -9.078125 3.15625 -9.332031 3.5625 -9.53125 C 3.96875 -9.738281 4.398438 -9.894531 4.859375 -10 C 5.316406 -10.113281 5.78125 -10.171875 6.25 -10.171875 C 6.757812 -10.171875 7.265625 -10.109375 7.765625 -9.984375 C 8.265625 -9.859375 8.734375 -9.675781 9.171875 -9.4375 C 9.609375 -9.207031 10.007812 -8.921875 10.375 -8.578125 C 10.75 -8.234375 11.066406 -7.835938 11.328125 -7.390625 C 11.453125 -7.148438 11.570312 -6.898438 11.6875 -6.640625 C 11.8125 -6.390625 11.878906 -6.117188 11.890625 -5.828125 C 11.753906 -5.828125 11.5625 -5.820312 11.3125 -5.8125 C 11.070312 -5.8125 10.8125 -5.8125 10.53125 -5.8125 C 10.257812 -5.8125 9.992188 -5.8125 9.734375 -5.8125 C 9.472656 -5.8125 9.25 -5.8125 9.0625 -5.8125 C 8.976562 -6.21875 8.796875 -6.554688 8.515625 -6.828125 C 8.234375 -7.109375 7.898438 -7.328125 7.515625 -7.484375 C 7.140625 -7.640625 6.738281 -7.722656 6.3125 -7.734375 C 5.894531 -7.742188 5.5 -7.6875 5.125 -7.5625 C 4.75 -7.4375 4.414062 -7.238281 4.125 -6.96875 C 3.84375 -6.695312 3.65625 -6.347656 3.5625 -5.921875 C 3.5625 -5.703125 3.632812 -5.519531 3.78125 -5.375 C 3.9375 -5.226562 4.117188 -5.113281 4.328125 -5.03125 C 4.859375 -4.863281 5.414062 -4.722656 6 -4.609375 C 6.582031 -4.492188 7.15625 -4.363281 7.71875 -4.21875 C 8.289062 -4.070312 8.84375 -3.878906 9.375 -3.640625 C 9.914062 -3.410156 10.394531 -3.085938 10.8125 -2.671875 C 11.03125 -2.421875 11.210938 -2.15625 11.359375 -1.875 C 11.515625 -1.59375 11.632812 -1.273438 11.71875 -0.921875 C 11.757812 -0.285156 11.617188 0.289062 11.296875 0.8125 C 10.984375 1.34375 10.578125 1.789062 10.078125 2.15625 C 9.578125 2.519531 9.015625 2.800781 8.390625 3 C 7.765625 3.195312 7.164062 3.285156 6.59375 3.265625 C 6.03125 3.265625 5.476562 3.191406 4.9375 3.046875 C 4.40625 2.910156 3.90625 2.703125 3.4375 2.421875 C 2.96875 2.148438 2.546875 1.8125 2.171875 1.40625 C 1.804688 1.007812 1.507812 0.554688 1.28125 0.046875 C 1.21875 -0.0976562 1.140625 -0.273438 1.046875 -0.484375 C 0.960938 -0.691406 0.921875 -0.882812 0.921875 -1.0625 Z M 0.921875 -1.0625 "/></g></g><g transform="translate(42.650761, 27.508535)"><g><path d="M 8.375 3.296875 C 7.675781 3.296875 7.078125 3.164062 6.578125 2.90625 C 6.078125 2.644531 5.65625 2.289062 5.3125 1.84375 C 4.96875 1.40625 4.703125 0.894531 4.515625 0.3125 C 4.335938 -0.257812 4.21875 -0.859375 4.15625 -1.484375 C 4.144531 -2.117188 4.132812 -2.742188 4.125 -3.359375 C 4.125 -3.984375 4.125 -4.609375 4.125 -5.234375 C 4.125 -5.867188 4.117188 -6.484375 4.109375 -7.078125 C 4.109375 -7.671875 4.097656 -8.300781 4.078125 -8.96875 L 0.90625 -8.96875 L 0.90625 -10.84375 L 3.890625 -10.84375 L 3.953125 -10.859375 L 4.09375 -11.015625 L 4.109375 -11.0625 L 4.109375 -14.453125 L 6.8125 -14.46875 L 6.8125 -11.09375 L 6.828125 -11.046875 L 6.96875 -10.890625 L 7.03125 -10.875 L 10.28125 -10.875 L 10.28125 -8.96875 L 6.828125 -8.96875 L 6.8125 -2.1875 C 6.8125 -1.71875 6.859375 -1.296875 6.953125 -0.921875 C 7.054688 -0.554688 7.210938 -0.242188 7.421875 0.015625 C 7.640625 0.285156 7.921875 0.492188 8.265625 0.640625 C 8.617188 0.785156 9.035156 0.859375 9.515625 0.859375 C 9.722656 0.859375 9.890625 0.847656 10.015625 0.828125 C 10.140625 0.804688 10.253906 0.785156 10.359375 0.765625 L 10.375 2.859375 C 10.039062 2.972656 9.707031 3.070312 9.375 3.15625 C 9.050781 3.25 8.71875 3.296875 8.375 3.296875 Z M 8.375 3.296875 "/></g></g><g transform="translate(53.932499, 27.508535)"><g><path d="M 1.5 -9.921875 L 4.09375 -9.921875 L 4.09375 -8.046875 L 4.140625 -7.96875 L 4.40625 -7.875 L 4.5 -7.90625 C 4.925781 -8.5 5.394531 -8.96875 5.90625 -9.3125 C 6.425781 -9.664062 7.0625 -9.84375 7.8125 -9.84375 C 8.238281 -9.84375 8.660156 -9.769531 9.078125 -9.625 C 9.492188 -9.488281 9.878906 -9.300781 10.234375 -9.0625 C 10.597656 -8.820312 10.925781 -8.535156 11.21875 -8.203125 C 11.507812 -7.878906 11.742188 -7.523438 11.921875 -7.140625 L 12 -7.09375 L 12.28125 -7.078125 L 12.328125 -7.125 C 12.546875 -7.5 12.785156 -7.851562 13.046875 -8.1875 C 13.316406 -8.519531 13.613281 -8.8125 13.9375 -9.0625 C 14.269531 -9.320312 14.632812 -9.523438 15.03125 -9.671875 C 15.425781 -9.816406 15.859375 -9.890625 16.328125 -9.890625 C 17.003906 -9.890625 17.632812 -9.738281 18.21875 -9.4375 C 18.800781 -9.144531 19.3125 -8.757812 19.75 -8.28125 C 20.1875 -7.800781 20.535156 -7.253906 20.796875 -6.640625 C 21.066406 -6.023438 21.234375 -5.398438 21.296875 -4.765625 C 21.304688 -4.421875 21.3125 -4.078125 21.3125 -3.734375 C 21.320312 -3.398438 21.328125 -3.054688 21.328125 -2.703125 L 21.328125 3.296875 L 18.71875 3.296875 L 18.71875 -4.34375 C 18.71875 -4.75 18.632812 -5.132812 18.46875 -5.5 C 18.300781 -5.863281 18.078125 -6.179688 17.796875 -6.453125 C 17.515625 -6.734375 17.1875 -6.953125 16.8125 -7.109375 C 16.4375 -7.273438 16.039062 -7.359375 15.625 -7.359375 C 15.257812 -7.359375 14.898438 -7.28125 14.546875 -7.125 C 14.191406 -6.976562 13.875 -6.773438 13.59375 -6.515625 C 13.320312 -6.265625 13.101562 -5.96875 12.9375 -5.625 C 12.78125 -5.289062 12.703125 -4.929688 12.703125 -4.546875 L 12.703125 3.28125 L 10.140625 3.296875 L 10.140625 -4.59375 C 10.140625 -4.988281 10.046875 -5.347656 9.859375 -5.671875 C 9.671875 -6.003906 9.429688 -6.289062 9.140625 -6.53125 C 8.847656 -6.769531 8.519531 -6.957031 8.15625 -7.09375 C 7.800781 -7.226562 7.441406 -7.296875 7.078125 -7.296875 C 6.734375 -7.296875 6.382812 -7.226562 6.03125 -7.09375 C 5.6875 -6.96875 5.367188 -6.789062 5.078125 -6.5625 C 4.796875 -6.332031 4.5625 -6.050781 4.375 -5.71875 C 4.1875 -5.394531 4.09375 -5.039062 4.09375 -4.65625 L 4.09375 3.296875 L 1.5 3.296875 Z M 1.5 -9.921875 "/></g></g><g transform="translate(76.767097, 27.508535)"><g><path d="M 10.96875 -3.375 C 10.96875 -3.644531 10.960938 -3.910156 10.953125 -4.171875 C 10.941406 -4.429688 10.910156 -4.707031 10.859375 -5 C 10.804688 -5.382812 10.671875 -5.726562 10.453125 -6.03125 C 10.242188 -6.332031 9.984375 -6.585938 9.671875 -6.796875 C 9.367188 -7.015625 9.035156 -7.175781 8.671875 -7.28125 C 8.304688 -7.394531 7.953125 -7.453125 7.609375 -7.453125 C 7.234375 -7.453125 6.878906 -7.390625 6.546875 -7.265625 C 6.210938 -7.140625 5.90625 -6.972656 5.625 -6.765625 C 5.34375 -6.554688 5.085938 -6.304688 4.859375 -6.015625 C 4.640625 -5.734375 4.46875 -5.425781 4.34375 -5.09375 C 4.25 -4.875 4.179688 -4.628906 4.140625 -4.359375 C 4.109375 -4.097656 4.09375 -3.828125 4.09375 -3.546875 C 4.09375 -3.203125 4.113281 -2.875 4.15625 -2.5625 C 4.195312 -2.25 4.253906 -1.96875 4.328125 -1.71875 C 4.421875 -1.363281 4.578125 -1.039062 4.796875 -0.75 C 5.015625 -0.457031 5.265625 -0.207031 5.546875 0 C 5.835938 0.207031 6.15625 0.367188 6.5 0.484375 C 6.84375 0.597656 7.195312 0.65625 7.5625 0.65625 C 7.945312 0.65625 8.328125 0.597656 8.703125 0.484375 C 9.078125 0.378906 9.414062 0.21875 9.71875 0 C 10.03125 -0.21875 10.289062 -0.488281 10.5 -0.8125 C 10.707031 -1.132812 10.851562 -1.5 10.9375 -1.90625 L 10.9375 -2.078125 C 10.945312 -2.296875 10.953125 -2.507812 10.953125 -2.71875 C 10.960938 -2.9375 10.96875 -3.15625 10.96875 -3.375 Z M 7.0625 -10.078125 C 7.582031 -10.078125 8.082031 -9.988281 8.5625 -9.8125 C 9.050781 -9.644531 9.484375 -9.382812 9.859375 -9.03125 L 9.984375 -8.921875 L 9.984375 -8.90625 C 10.003906 -8.882812 10.015625 -8.867188 10.015625 -8.859375 C 10.023438 -8.847656 10.039062 -8.832031 10.0625 -8.8125 C 10.164062 -8.695312 10.273438 -8.582031 10.390625 -8.46875 C 10.515625 -8.363281 10.597656 -8.300781 10.640625 -8.28125 L 10.71875 -8.296875 L 10.921875 -8.4375 L 10.953125 -8.5 L 10.953125 -10.078125 L 13.5625 -10.078125 L 13.5625 3.296875 L 10.953125 3.296875 L 10.953125 1.78125 L 10.90625 1.703125 L 10.625 1.59375 L 10.546875 1.625 C 10.128906 2.125 9.648438 2.523438 9.109375 2.828125 C 8.566406 3.140625 7.960938 3.296875 7.296875 3.296875 C 6.617188 3.296875 5.96875 3.171875 5.34375 2.921875 C 4.726562 2.679688 4.171875 2.347656 3.671875 1.921875 C 3.171875 1.503906 2.742188 1.007812 2.390625 0.4375 C 2.035156 -0.125 1.78125 -0.726562 1.625 -1.375 L 1.625 -1.40625 C 1.601562 -1.457031 1.582031 -1.546875 1.5625 -1.671875 C 1.550781 -1.796875 1.539062 -1.972656 1.53125 -2.203125 C 1.519531 -2.441406 1.507812 -2.753906 1.5 -3.140625 C 1.5 -3.523438 1.5 -4.019531 1.5 -4.625 C 1.5 -5.3125 1.660156 -5.984375 1.984375 -6.640625 C 2.304688 -7.296875 2.726562 -7.875 3.25 -8.375 C 3.78125 -8.882812 4.378906 -9.296875 5.046875 -9.609375 C 5.710938 -9.921875 6.382812 -10.078125 7.0625 -10.078125 Z M 7.0625 -10.078125 "/></g></g><g transform="translate(91.84456, 27.508535)"><g><path d="M 4.140625 -10.078125 L 4.140625 -8.515625 L 4.203125 -8.4375 L 4.484375 -8.359375 L 4.5625 -8.40625 C 4.875 -8.945312 5.289062 -9.359375 5.8125 -9.640625 C 6.34375 -9.929688 6.921875 -10.078125 7.546875 -10.078125 C 8.328125 -10.078125 9.054688 -9.9375 9.734375 -9.65625 C 10.421875 -9.375 11.023438 -8.988281 11.546875 -8.5 C 12.078125 -8.007812 12.507812 -7.429688 12.84375 -6.765625 C 13.1875 -6.097656 13.410156 -5.378906 13.515625 -4.609375 C 13.523438 -4.242188 13.53125 -3.867188 13.53125 -3.484375 C 13.539062 -3.109375 13.546875 -2.710938 13.546875 -2.296875 L 13.546875 3.296875 L 10.9375 3.296875 L 10.90625 -4.578125 L 10.90625 -4.625 C 10.820312 -5.007812 10.675781 -5.375 10.46875 -5.71875 C 10.257812 -6.070312 10 -6.375 9.6875 -6.625 C 9.382812 -6.882812 9.046875 -7.085938 8.671875 -7.234375 C 8.296875 -7.378906 7.898438 -7.453125 7.484375 -7.453125 C 7.078125 -7.453125 6.671875 -7.367188 6.265625 -7.203125 C 5.867188 -7.046875 5.515625 -6.828125 5.203125 -6.546875 C 4.890625 -6.273438 4.632812 -5.945312 4.4375 -5.5625 C 4.238281 -5.1875 4.140625 -4.78125 4.140625 -4.34375 L 4.125 3.296875 L 1.5 3.296875 L 1.5 -10.078125 Z M 4.140625 -10.078125 "/></g></g></g></g></g></svg>