<svg xmlns="http://www.w3.org/2000/svg" xmlns:xlink="http://www.w3.org/1999/xlink" width="2000" zoomAndPan="magnify" viewBox="0 0 1500 899.99999" height="1200" preserveAspectRatio="xMidYMid meet" version="1.0"><defs><clipPath id="d59d68c663"><path d="M 0.00390625 244.136719 L 673.496094 244.136719 L 673.496094 648.402344 L 0.00390625 648.402344 Z M 0.00390625 244.136719 " clip-rule="nonzero"/></clipPath></defs><g clip-path="url(#d59d68c663)"><path fill="#38bdf8" d="M 336.75 244.136719 C 246.949219 244.136719 190.828125 289.054688 168.375 378.890625 C 202.050781 333.972656 241.339844 317.128906 286.238281 328.359375 C 311.855469 334.761719 330.164062 353.363281 350.433594 373.9375 C 383.445312 407.464844 421.660156 446.269531 505.125 446.269531 C 594.921875 446.269531 651.046875 401.351562 673.496094 311.515625 C 639.820312 356.433594 600.535156 373.277344 555.636719 362.046875 C 530.015625 355.648438 511.707031 337.042969 491.441406 316.46875 C 458.425781 282.941406 420.214844 244.136719 336.75 244.136719 Z M 168.375 446.269531 C 78.578125 446.269531 22.453125 491.1875 0.00390625 581.023438 C 33.679688 536.105469 72.964844 519.261719 117.863281 530.492188 C 143.484375 536.90625 161.792969 555.496094 182.058594 576.070312 C 215.074219 609.597656 253.285156 648.402344 336.75 648.402344 C 426.550781 648.402344 482.671875 603.484375 505.125 513.648438 C 471.449219 558.566406 432.160156 575.410156 387.261719 564.179688 C 361.644531 557.777344 343.335938 539.175781 323.066406 518.601562 C 290.054688 485.074219 251.839844 446.269531 168.375 446.269531 Z M 168.375 446.269531 " fill-opacity="1" fill-rule="evenodd"/></g><path fill="#ffffff" d="M 618.214844 516.660156 L 595.253906 516.660156 L 595.253906 561.179688 C 595.253906 573.050781 603.03125 572.867188 618.214844 572.125 L 618.214844 590.117188 C 587.480469 593.828125 575.261719 585.296875 575.261719 561.179688 L 575.261719 516.660156 L 558.226562 516.660156 L 558.226562 497.367188 L 575.261719 497.367188 L 575.261719 472.449219 L 595.253906 466.515625 L 595.253906 497.367188 L 618.214844 497.367188 Z M 705.726562 497.367188 L 725.722656 497.367188 L 725.722656 590.117188 L 705.726562 590.117188 L 705.726562 576.761719 C 698.691406 586.59375 687.769531 592.53125 673.328125 592.53125 C 648.148438 592.53125 627.226562 571.195312 627.226562 543.742188 C 627.226562 516.101562 648.148438 494.953125 673.328125 494.953125 C 687.769531 494.953125 698.691406 500.890625 705.726562 510.539062 Z M 676.472656 573.421875 C 693.136719 573.421875 705.726562 560.996094 705.726562 543.742188 C 705.726562 526.492188 693.136719 514.0625 676.472656 514.0625 C 659.8125 514.0625 647.222656 526.492188 647.222656 543.742188 C 647.222656 560.996094 659.8125 573.421875 676.472656 573.421875 Z M 759.046875 483.453125 C 752.011719 483.453125 746.273438 477.515625 746.273438 470.652344 C 746.277344 467.261719 747.628906 464.007812 750.019531 461.609375 C 752.417969 459.210938 755.660156 457.859375 759.046875 457.855469 C 762.433594 457.859375 765.679688 459.210938 768.074219 461.609375 C 770.46875 464.007812 771.816406 467.261719 771.820312 470.652344 C 771.820312 477.515625 766.082031 483.453125 759.046875 483.453125 Z M 749.050781 590.117188 L 749.050781 497.367188 L 769.046875 497.367188 L 769.046875 590.117188 Z M 792.1875 590.117188 L 792.1875 454.699219 L 812.183594 454.699219 L 812.183594 590.117188 Z M 941.96875 497.367188 L 963.074219 497.367188 L 934.003906 590.117188 L 914.378906 590.117188 L 895.125 527.605469 L 875.6875 590.117188 L 856.0625 590.117188 L 826.996094 497.367188 L 848.101562 497.367188 L 866.058594 561.367188 L 885.5 497.367188 L 904.566406 497.367188 L 923.824219 561.367188 Z M 987.882812 483.453125 C 980.847656 483.453125 975.105469 477.515625 975.105469 470.652344 C 975.113281 467.261719 976.460938 464.007812 978.855469 461.609375 C 981.25 459.210938 984.496094 457.859375 987.882812 457.855469 C 991.269531 457.859375 994.511719 459.210938 996.910156 461.609375 C 999.300781 464.007812 1000.652344 467.261719 1000.65625 470.652344 C 1000.65625 477.515625 994.917969 483.453125 987.882812 483.453125 Z M 977.882812 590.117188 L 977.882812 497.367188 L 997.878906 497.367188 L 997.878906 590.117188 Z M 1069.714844 494.953125 C 1090.449219 494.953125 1105.261719 509.054688 1105.261719 533.167969 L 1105.261719 590.117188 L 1085.265625 590.117188 L 1085.265625 535.210938 C 1085.265625 521.109375 1077.121094 513.691406 1064.53125 513.691406 C 1051.386719 513.691406 1041.015625 521.480469 1041.015625 540.402344 L 1041.015625 590.117188 L 1021.023438 590.117188 L 1021.023438 497.367188 L 1041.015625 497.367188 L 1041.015625 509.238281 C 1047.128906 499.59375 1057.125 494.953125 1069.714844 494.953125 Z M 1200.054688 460.265625 L 1220.050781 460.265625 L 1220.050781 590.117188 L 1200.054688 590.117188 L 1200.054688 576.761719 C 1193.019531 586.59375 1182.09375 592.53125 1167.652344 592.53125 C 1142.476562 592.53125 1121.554688 571.195312 1121.554688 543.742188 C 1121.554688 516.101562 1142.476562 494.953125 1167.652344 494.953125 C 1182.09375 494.953125 1193.019531 500.890625 1200.054688 510.539062 Z M 1170.800781 573.421875 C 1187.464844 573.421875 1200.054688 560.996094 1200.054688 543.742188 C 1200.054688 526.492188 1187.464844 514.0625 1170.800781 514.0625 C 1154.136719 514.0625 1141.550781 526.492188 1141.550781 543.742188 C 1141.550781 560.996094 1154.136719 573.421875 1170.800781 573.421875 Z M 1287.070312 592.53125 C 1259.113281 592.53125 1238.191406 571.195312 1238.191406 543.742188 C 1238.191406 516.101562 1259.113281 494.953125 1287.070312 494.953125 C 1305.214844 494.953125 1320.949219 504.414062 1328.355469 518.886719 L 1311.136719 528.902344 C 1307.066406 520.183594 1297.992188 514.617188 1286.886719 514.617188 C 1270.59375 514.617188 1258.1875 527.046875 1258.1875 543.742188 C 1258.1875 560.4375 1270.59375 572.867188 1286.886719 572.867188 C 1297.992188 572.867188 1307.066406 567.117188 1311.507812 558.582031 L 1328.726562 568.414062 C 1320.949219 583.070312 1305.214844 592.53125 1287.070312 592.53125 Z M 1361.683594 522.964844 C 1361.683594 539.847656 1411.484375 529.644531 1411.484375 563.960938 C 1411.484375 582.511719 1395.378906 592.53125 1375.382812 592.53125 C 1356.867188 592.53125 1343.539062 584.183594 1337.613281 570.824219 L 1354.832031 560.808594 C 1357.792969 569.15625 1365.199219 574.164062 1375.382812 574.164062 C 1384.269531 574.164062 1391.121094 571.195312 1391.121094 563.777344 C 1391.121094 547.265625 1341.316406 556.542969 1341.316406 523.335938 C 1341.316406 505.898438 1356.3125 494.953125 1375.195312 494.953125 C 1390.378906 494.953125 1402.96875 502.003906 1409.449219 514.246094 L 1392.601562 523.707031 C 1389.269531 516.472656 1382.789062 513.132812 1375.195312 513.132812 C 1367.976562 513.132812 1361.683594 516.289062 1361.683594 522.964844 Z M 1447.03125 522.964844 C 1447.03125 539.847656 1496.835938 529.644531 1496.835938 563.960938 C 1496.835938 582.511719 1480.726562 592.53125 1460.734375 592.53125 C 1442.21875 592.53125 1428.886719 584.183594 1422.964844 570.824219 L 1440.183594 560.808594 C 1443.144531 569.15625 1450.550781 574.164062 1460.734375 574.164062 C 1469.621094 574.164062 1476.46875 571.195312 1476.46875 563.777344 C 1476.46875 547.265625 1426.667969 556.542969 1426.667969 523.335938 C 1426.667969 505.898438 1441.664062 494.953125 1460.546875 494.953125 C 1475.730469 494.953125 1488.320312 502.003906 1494.796875 514.246094 L 1477.949219 523.707031 C 1474.617188 516.472656 1468.136719 513.132812 1460.546875 513.132812 C 1453.328125 513.132812 1447.03125 516.289062 1447.03125 522.964844 Z M 1447.03125 522.964844 " fill-opacity="1" fill-rule="evenodd"/></svg>