<svg xmlns="http://www.w3.org/2000/svg" xmlns:xlink="http://www.w3.org/1999/xlink" width="1024" zoomAndPan="magnify" viewBox="0 0 768 767.999994" height="1024" preserveAspectRatio="xMidYMid meet" version="1.0"><defs><clipPath id="64e3fbb949"><path d="M 0 297.511719 L 768 297.511719 L 768 470.761719 L 0 470.761719 Z M 0 297.511719 " clip-rule="nonzero"/></clipPath></defs><g clip-path="url(#64e3fbb949)"><path fill="#ffffff" d="M 384.863281 340.714844 C 355.101562 340.714844 333.640625 360.089844 333.640625 389.496094 C 333.640625 418.902344 357.871094 438.277344 387.632812 438.277344 C 405.632812 438.277344 421.550781 431.011719 431.242188 419.25 L 410.476562 407.140625 C 404.9375 413.019531 396.632812 416.480469 387.289062 416.480469 C 374.480469 416.480469 363.40625 409.5625 359.253906 398.835938 L 435.050781 398.835938 C 435.742188 395.722656 436.089844 392.609375 436.089844 389.496094 C 436.089844 360.089844 414.628906 340.714844 384.863281 340.714844 Z M 359.253906 379.808594 C 362.714844 369.082031 371.714844 362.164062 384.867188 362.164062 C 397.671875 362.164062 407.015625 369.082031 410.476562 379.808594 Z M 353.023438 310.960938 L 278.265625 440.699219 L 203.160156 310.960938 L 231.195312 310.960938 L 277.917969 391.917969 L 324.988281 310.960938 Z M 100.023438 297.46875 L 200.046875 470.449219 L 0 470.449219 Z M 544.765625 389.496094 C 544.765625 405.753906 555.492188 416.480469 571.761719 416.480469 C 582.835938 416.480469 591.140625 411.289062 595.640625 403.332031 L 616.40625 415.441406 C 607.753906 429.628906 591.835938 438.277344 571.761719 438.277344 C 541.996094 438.277344 520.539062 418.902344 520.539062 389.496094 C 520.539062 360.089844 541.996094 340.714844 571.761719 340.714844 C 591.488281 340.714844 607.753906 349.363281 616.40625 363.546875 L 595.640625 375.65625 C 591.488281 367.355469 582.835938 362.511719 571.761719 362.511719 C 555.492188 362.511719 544.765625 373.234375 544.765625 389.496094 Z M 768 310.960938 L 768 435.164062 L 743.773438 435.164062 L 743.773438 310.960938 Z M 675.9375 340.714844 C 646.171875 340.714844 624.714844 360.089844 624.714844 389.496094 C 624.714844 418.902344 648.941406 438.277344 678.707031 438.277344 C 696.703125 438.277344 712.625 431.011719 722.316406 419.25 L 701.546875 407.140625 C 696.011719 413.019531 687.703125 416.480469 678.359375 416.480469 C 665.554688 416.480469 654.480469 409.5625 650.324219 398.835938 L 726.121094 398.835938 C 726.8125 395.722656 727.160156 392.609375 727.160156 389.496094 C 727.507812 360.089844 705.703125 340.714844 675.9375 340.714844 Z M 650.324219 379.808594 C 653.785156 369.082031 662.785156 362.164062 675.9375 362.164062 C 689.089844 362.164062 698.085938 369.082031 701.546875 379.808594 Z M 512.578125 343.484375 L 512.578125 369.777344 C 509.808594 369.082031 507.039062 368.390625 503.925781 368.390625 C 488.351562 368.390625 476.929688 379.117188 476.929688 395.375 L 476.929688 435.507812 L 452.703125 435.507812 L 452.703125 343.484375 L 476.929688 343.484375 L 476.929688 368.390625 C 476.929688 354.554688 492.847656 343.484375 512.578125 343.484375 Z M 512.578125 343.484375 " fill-opacity="1" fill-rule="nonzero"/></g></svg>